<svg xmlns="http://www.w3.org/2000/svg" width="720" height="720" viewBox="0 0 720 720"><rect width="720" height="720" fill="#EFEEF3"/><g stroke="#353A3D" fill="none"><rect x="72" y="88" width="388" height="500"/><path d="M72 145h388M100 190h200M100 214h144M100 259h332M100 389h332"/><rect x="100" y="286" width="146" height="78"/><rect x="266" y="286" width="166" height="78"/><rect x="100" y="418" width="332" height="130"/></g><rect x="420" y="250" width="208" height="382" fill="#353A3D"/><g fill="#EFEEF3"><rect x="438" y="289" width="172" height="5"/><rect x="438" y="321" width="116" height="13"/><rect x="438" y="345" width="148" height="13"/><rect x="438" y="402" width="172" height="99"/><rect x="438" y="532" width="172" height="66"/></g><text x="72" y="675" fill="#353A3D" font-size="14" font-family="sans-serif">RESPONSIVE STUDY — SQUARE / TEST IMAGE</text></svg>
